<svg xmlns="http://www.w3.org/2000/svg" width="20" height="20" viewBox="0 0 20 20" fill="none">
  <path d="M2.5 2.5C2.5 1.83696 2.76339 1.20107 3.23223 0.732233C3.70107 0.263392 4.33696 0 5 0L15 0C15.663 0 16.2989 0.263392 16.7678 0.732233C17.2366 1.20107 17.5 1.83696 17.5 2.5V19.375C17.4999 19.4881 17.4692 19.599 17.4111 19.6959C17.353 19.7929 17.2697 19.8723 17.17 19.9257C17.0703 19.979 16.9581 20.0044 16.8451 19.999C16.7322 19.9936 16.6229 19.9576 16.5287 19.895L10 16.3763L3.47125 19.895C3.37713 19.9576 3.26779 19.9936 3.15486 19.999C3.04194 20.0044 2.92967 19.979 2.83 19.9257C2.73033 19.8723 2.64701 19.7929 2.58889 19.6959C2.53078 19.599 2.50006 19.4881 2.5 19.375V2.5ZM5 1.25C4.66848 1.25 4.35054 1.3817 4.11612 1.61612C3.8817 1.85054 3.75 2.16848 3.75 2.5V18.2075L9.65375 15.105C9.75633 15.0367 9.87679 15.0003 10 15.0003C10.1232 15.0003 10.2437 15.0367 10.3463 15.105L16.25 18.2075V2.5C16.25 2.16848 16.1183 1.85054 15.8839 1.61612C15.6495 1.3817 15.3315 1.25 15 1.25H5Z" fill="#B0B0B0"/>
</svg>