<svg xmlns="http://www.w3.org/2000/svg" width="24" height="24" viewBox="0 0 24 24" fill="none">
<path d="M7.99778 2.01416C5.44577 2.01416 3.99777 3.46056 3.99777 6.01066V20.9975C3.99777 21.7148 4.71277 22.2167 5.37277 21.9342L11.9978 19.0929L18.5918 21.9342C19.2518 22.2167 19.9978 21.7148 19.9978 20.9975V6.01066C19.9978 3.38956 18.6928 2.01416 15.9978 2.01416H7.99778ZM7.99778 4.01236H15.9978C17.5638 4.01236 17.9978 4.46986 17.9978 6.01066V19.4988L12.3728 17.0947C12.1208 16.987 11.8428 16.987 11.5918 17.0947L5.99777 19.4988V6.01066C5.99777 4.56416 6.54977 4.01236 7.99778 4.01236Z" fill="#B0B0B0"/>
</svg>