<svg xmlns="http://www.w3.org/2000/svg" width="24" height="24" viewBox="0 0 24 24" fill="none">
    <path d="M4.99422 3.90634C4.73832 3.90634 4.47072 3.99235 4.27542 4.18735C3.88492 4.57835 3.88492 5.23434 4.27542 5.62534L10.5567 11.9063L4.27542 18.1873C3.88492 18.5783 3.88492 19.2343 4.27542 19.6253C4.66602 20.0153 5.32242 20.0153 5.71302 19.6253L11.9942 13.3443L18.2754 19.6253C18.666 20.0153 19.3224 20.0153 19.713 19.6253C20.1035 19.2343 20.1035 18.5783 19.713 18.1873L13.4317 11.9063L19.713 5.62534C20.1035 5.23434 20.1035 4.57835 19.713 4.18735C19.5177 3.99235 19.25 3.90634 18.9942 3.90634C18.7383 3.90634 18.4708 3.99235 18.2754 4.18735L11.9942 10.4683L5.71302 4.18735C5.51772 3.99235 5.25012 3.90634 4.99422 3.90634Z"
          fill="#fff"/>
</svg>