<svg xmlns="http://www.w3.org/2000/svg" width="24" height="24" viewBox="0 0 24 24" fill="none">
<path d="M12.0142 1.9989C6.49116 1.9989 2.01416 6.4759 2.01416 11.9989C2.01416 17.5219 6.49116 21.9989 12.0142 21.9989C17.5372 21.9989 22.0142 17.5219 22.0142 11.9989C22.0142 6.4759 17.5372 1.9989 12.0142 1.9989ZM12.0142 3.9989C16.4322 3.9989 20.0142 7.5809 20.0142 11.9989C20.0142 16.4169 16.4322 19.9989 12.0142 19.9989C7.59616 19.9989 4.01416 16.4169 4.01416 11.9989C4.01416 7.5809 7.59616 3.9989 12.0142 3.9989ZM15.7022 7.06091L9.70216 9.06091C9.40316 9.16091 9.17616 9.38789 9.07616 9.68689L7.07616 15.6869C6.81616 16.4679 7.54516 17.1969 8.32616 16.9369C9.07716 16.6859 13.5762 15.1869 14.3262 14.9369C14.6252 14.8369 14.8522 14.6099 14.9522 14.3109L16.9522 8.31091C17.2122 7.52991 16.4832 6.80091 15.7022 7.06091ZM14.4522 9.56091L13.2332 13.2179C12.4472 13.4799 11.0152 13.9569 9.57616 14.4369L10.7952 10.7799L14.4522 9.56091Z"
      fill="#B0B0B0"/>
</svg>