<svg xmlns="http://www.w3.org/2000/svg" width="24" height="24" viewBox="0 0 24 24" fill="none">
    <path d="M11.9907 1.9989C11.4387 1.9989 10.9907 2.4466 10.9907 2.9989V13.5609L7.99073 10.5929L6.58472 11.9989L11.2717 16.7179C11.6627 17.1079 12.3187 17.1079 12.7097 16.7179L17.3967 11.9989L15.9907 10.5929L12.9907 13.5609V2.9989C12.9907 2.4466 12.5427 1.9988 11.9907 1.9989ZM3.99072 13.9989C3.43872 13.9989 2.99072 14.4469 2.99072 14.9989V16.9989C2.99072 19.2079 4.78172 20.9989 6.99073 20.9989H16.9907C19.1997 20.9989 20.9907 19.2079 20.9907 16.9989V14.9989C20.9907 14.4469 20.5427 13.9989 19.9907 13.9989C19.4387 13.9989 18.9907 14.4469 18.9907 14.9989V16.9989C18.9907 18.1039 18.0957 18.9989 16.9907 18.9989H6.99073C5.88573 18.9989 4.99072 18.1039 4.99072 16.9989V14.9989C4.99072 14.4469 4.54272 13.9989 3.99072 13.9989Z"
          fill="#fff"/>
</svg>