<svg xmlns="http://www.w3.org/2000/svg" width="20" height="20" viewBox="0 0 20 20" fill="none">
  <g clip-path="url(#clip0_61_794)">
    <path d="M13.9314 16.4601L13.3981 12.1901C13.3225 11.5852 13.0286 11.0289 12.5716 10.6256C12.1146 10.2223 11.5259 9.99983 10.9164 10.0001H9.07976C8.47053 10.0002 7.88233 10.2229 7.42567 10.6261C6.969 11.0294 6.67531 11.5855 6.59976 12.1901L6.0656 16.4601C6.03628 16.6947 6.05721 16.9328 6.127 17.1587C6.19678 17.3846 6.31382 17.593 6.47035 17.7702C6.62688 17.9474 6.81931 18.0892 7.03487 18.1863C7.25043 18.2834 7.48418 18.3336 7.7206 18.3334H12.2773C12.5136 18.3334 12.7473 18.2832 12.9627 18.1861C13.1782 18.0889 13.3705 17.9471 13.527 17.7699C13.6834 17.5927 13.8004 17.3843 13.8701 17.1585C13.9398 16.9327 13.9607 16.6946 13.9314 16.4601V16.4601Z" stroke="#B0B0B0" stroke-width="2" stroke-linecap="round" stroke-linejoin="round"/>
    <path d="M10 6.66675C11.3807 6.66675 12.5 5.54746 12.5 4.16675C12.5 2.78604 11.3807 1.66675 10 1.66675C8.61929 1.66675 7.5 2.78604 7.5 4.16675C7.5 5.54746 8.61929 6.66675 10 6.66675Z" stroke="#B0B0B0" stroke-width="2"/>
    <path d="M3.33073 9.16683C4.2512 9.16683 4.9974 8.42064 4.9974 7.50016C4.9974 6.57969 4.2512 5.8335 3.33073 5.8335C2.41025 5.8335 1.66406 6.57969 1.66406 7.50016C1.66406 8.42064 2.41025 9.16683 3.33073 9.16683Z" stroke="#B0B0B0" stroke-width="2"/>
    <path d="M16.6667 9.16683C17.5871 9.16683 18.3333 8.42064 18.3333 7.50016C18.3333 6.57969 17.5871 5.8335 16.6667 5.8335C15.7462 5.8335 15 6.57969 15 7.50016C15 8.42064 15.7462 9.16683 16.6667 9.16683Z" stroke="#B0B0B0" stroke-width="2"/>
    <path d="M16.6655 11.6667H16.9205C17.315 11.6667 17.6968 11.8066 17.9979 12.0616C18.2989 12.3166 18.4998 12.6701 18.5647 13.0592L18.8422 14.7259C18.882 14.9647 18.8693 15.2093 18.805 15.4427C18.7408 15.6761 18.6264 15.8927 18.4699 16.0774C18.3134 16.2621 18.1186 16.4105 17.8989 16.5123C17.6793 16.6141 17.4401 16.6668 17.198 16.6667H14.1655M3.33218 11.6667H3.07718C2.68265 11.6667 2.3009 11.8066 1.99983 12.0616C1.69877 12.3166 1.49792 12.6701 1.43302 13.0592L1.15552 14.7259C1.11569 14.9647 1.12837 15.2093 1.19266 15.4427C1.25695 15.6761 1.37131 15.8927 1.52779 16.0774C1.68427 16.2621 1.87911 16.4105 2.09876 16.5123C2.31841 16.6141 2.5576 16.6668 2.79968 16.6667H5.83218L3.33218 11.6667Z" stroke="#B0B0B0" stroke-width="2" stroke-linecap="round" stroke-linejoin="round"/>
  </g>
  <defs>
    <clipPath id="clip0_61_794">
      <rect width="20" height="20" fill="white"/>
    </clipPath>
  </defs>
</svg>