<svg xmlns="http://www.w3.org/2000/svg" width="24" height="24" viewBox="0 0 24 24" fill="none">
    <path d="M7.4989 2.99072C4.4613 2.99072 1.9989 5.45273 1.9989 8.49073C1.9989 11.6747 3.8124 14.6787 6.8114 17.4287C7.835 18.3667 8.9371 19.1897 10.0301 19.9287C10.4132 20.1867 10.7715 20.4208 11.0927 20.6158C11.2885 20.7348 11.4176 20.8208 11.4989 20.8658C11.8009 21.0338 12.1969 21.0338 12.4989 20.8658C12.5802 20.8208 12.7093 20.7348 12.9051 20.6158C13.2263 20.4208 13.5846 20.1867 13.9677 19.9287C15.0607 19.1897 16.1628 18.3667 17.1864 17.4287C20.1854 14.6787 21.9989 11.6747 21.9989 8.49073C21.9989 5.45273 19.5365 2.99072 16.4989 2.99072C14.7737 2.99072 13.0893 3.93074 12.0301 5.30274C10.9973 3.90674 9.3188 2.99072 7.4989 2.99072Z"
          fill="#D22B2B"/>
</svg>