<svg xmlns="http://www.w3.org/2000/svg" width="18" height="18" viewBox="0 0 18 18" fill="none">
  <path d="M16.5 15V9.13049C16.5 8.72213 16.4167 8.31807 16.2551 7.94304C16.0935 7.56802 15.8571 7.22993 15.5602 6.94949L10.0305 1.72349C9.752 1.46019 9.38327 1.31348 9 1.31348C8.61673 1.31348 8.248 1.46019 7.9695 1.72349L2.43975 6.94949C2.14292 7.22993 1.90646 7.56802 1.74487 7.94304C1.58328 8.31807 1.49996 8.72213 1.5 9.13049V15C1.5 15.3978 1.65804 15.7793 1.93934 16.0607C2.22064 16.342 2.60218 16.5 3 16.5H15C15.3978 16.5 15.7794 16.342 16.0607 16.0607C16.342 15.7793 16.5 15.3978 16.5 15Z" stroke="#B0B0B0" stroke-width="2" stroke-linecap="round" stroke-linejoin="round"/>
</svg>