<svg xmlns="http://www.w3.org/2000/svg" width="20" height="18" viewBox="0 0 20 18" fill="none">
    <path d="M5.4989 -0.00927734C2.4613 -0.00927734 -0.00109863 2.45273 -0.00109863 5.49073C-0.00109863 8.67474 1.8124 11.6787 4.8114 14.4287C5.835 15.3667 6.9371 16.1897 8.0301 16.9287C8.4132 17.1867 8.7715 17.4208 9.0927 17.6158C9.2885 17.7348 9.4176 17.8208 9.4989 17.8658C9.8009 18.0338 10.1969 18.0338 10.4989 17.8658C10.5802 17.8208 10.7093 17.7348 10.9051 17.6158C11.2263 17.4208 11.5846 17.1867 11.9677 16.9287C13.0607 16.1897 14.1628 15.3667 15.1864 14.4287C18.1854 11.6787 19.9989 8.67474 19.9989 5.49073C19.9989 2.45273 17.5365 -0.00927734 14.4989 -0.00927734C12.7737 -0.00927734 11.0893 0.930736 10.0301 2.30274C8.9973 0.906736 7.3188 -0.00927734 5.4989 -0.00927734ZM5.4989 1.99073C6.7128 1.99073 7.8464 2.60674 8.4989 3.55274C8.5623 3.64474 9.0622 4.37974 9.1551 4.52174C9.542 5.11474 10.4052 5.13275 10.8114 4.55274C10.9102 4.41174 11.4305 3.67972 11.4989 3.58472C12.18 2.63272 13.3721 1.99073 14.4989 1.99073C16.4319 1.99073 17.9989 3.55773 17.9989 5.49073C17.9989 7.99374 16.4374 10.5207 13.8114 12.9287C12.8662 13.7947 11.859 14.5848 10.8427 15.2718C10.5354 15.4798 10.2613 15.6418 9.9989 15.8028C9.7365 15.6418 9.4624 15.4798 9.1551 15.2718C8.1388 14.5848 7.1316 13.7947 6.1864 12.9287C3.5604 10.5207 1.9989 7.99374 1.9989 5.49073C1.9989 3.55773 3.5659 1.99073 5.4989 1.99073Z"
          fill="#B0B0B0"/>
</svg>