<svg xmlns="http://www.w3.org/2000/svg" width="20" height="20" viewBox="0 0 20 20" fill="none">
  <path d="M16.25 10.3663V8.75H15V10.625C15 10.7907 15.0659 10.9497 15.1831 11.0669L16.875 12.7587V13.75H3.125V12.7587L4.81687 11.0669C4.93409 10.9497 4.99996 10.7907 5 10.625V8.125C4.99826 7.24675 5.22831 6.38358 5.66693 5.6227C6.10555 4.86181 6.73719 4.23015 7.49806 3.7915C8.25893 3.35286 9.12209 3.12278 10.0003 3.12449C10.8786 3.1262 11.7408 3.35965 12.5 3.80125V2.40437C11.9051 2.14095 11.2723 1.97305 10.625 1.90688V0.625H9.375V1.90625C7.83411 2.06308 6.4061 2.7857 5.36711 3.93436C4.32811 5.08303 3.75194 6.57615 3.75 8.125V10.3663L2.05812 12.0581C1.94091 12.1753 1.87504 12.3343 1.875 12.5V14.375C1.875 14.5408 1.94085 14.6997 2.05806 14.8169C2.17527 14.9342 2.33424 15 2.5 15H6.875V15.625C6.875 16.4538 7.20424 17.2487 7.79029 17.8347C8.37634 18.4208 9.1712 18.75 10 18.75C10.8288 18.75 11.6237 18.4208 12.2097 17.8347C12.7958 17.2487 13.125 16.4538 13.125 15.625V15H17.5C17.6658 15 17.8247 14.9342 17.9419 14.8169C18.0592 14.6997 18.125 14.5408 18.125 14.375V12.5C18.125 12.3343 18.0591 12.1753 17.9419 12.0581L16.25 10.3663ZM11.875 15.625C11.875 16.1223 11.6775 16.5992 11.3258 16.9508C10.9742 17.3025 10.4973 17.5 10 17.5C9.50272 17.5 9.02581 17.3025 8.67417 16.9508C8.32254 16.5992 8.125 16.1223 8.125 15.625V15H11.875V15.625Z" fill="#B0B0B0"/>
  <path d="M16.25 7.5C17.6307 7.5 18.75 6.38071 18.75 5C18.75 3.61929 17.6307 2.5 16.25 2.5C14.8693 2.5 13.75 3.61929 13.75 5C13.75 6.38071 14.8693 7.5 16.25 7.5Z" fill="#B0B0B0"/>
</svg>