<svg xmlns="http://www.w3.org/2000/svg" width="21" height="17" viewBox="0 0 21 17" fill="none">
  <path d="M1.0744 6.46247C0.424 6.73547 0.0203004 7.22146 0.0142004 7.90946C0.0100004 8.39046 0.334599 9.03648 0.984999 9.30048C1.2529 9.40948 5.0144 9.91548 5.0144 9.91548C5.0144 9.91548 6.01 13.0625 6.3688 14.1685C6.4727 14.4885 6.5319 14.6455 6.7599 14.8545C7.1467 15.2085 7.8006 15.0975 8.0834 14.8135C8.8316 14.0635 10.0142 12.9065 10.0142 12.9065L10.5119 13.3115C10.5119 13.3115 12.722 15.0745 13.9301 15.9045C14.6414 16.3935 15.1351 16.9035 15.9357 16.9065C16.3435 16.9085 16.9976 16.7055 17.43 16.2105C17.7157 15.8835 17.899 15.3605 17.9699 14.8915C18.1311 13.8265 20.0222 2.31047 20.0142 1.90747C20.0014 1.26447 19.4605 0.902466 19.0109 0.906466C18.7285 0.909466 18.4958 0.991477 17.978 1.14948C13.9726 2.37248 1.3397 6.35147 1.0744 6.46247ZM16.0142 3.90647C16.0142 3.90647 10.7362 8.50048 8.6271 10.6145C7.9514 11.2915 7.9037 12.4535 7.9037 12.4535L6.8135 8.96546L16.0142 3.90647Z" fill="#2A343D"/>
</svg>